HIERARCHY
ROOT Root
{
  OFFSET 0.0 0.0 0.0
  CHANNELS 6 Xposition Yposition Zposition Zrotation Yrotation Xrotation
  JOINT Hips
  {
    OFFSET 0.0 100.0 0.0
    CHANNELS 6 Xposition Yposition Zposition Zrotation Yrotation Xrotation
    JOINT Spine1
    {
      OFFSET 5.003913 -0.037094 -0.013727
      CHANNELS 3 Zrotation Yrotation Xrotation
      JOINT Spine2
      {
        OFFSET 7.125363 -1e-06 0.0
        CHANNELS 3 Zrotation Yrotation Xrotation
        JOINT Chest
        {
          OFFSET 7.594027 1e-06 0.0
          CHANNELS 3 Zrotation Yrotation Xrotation
          JOINT Neck1
          {
            OFFSET 26.313086 -0.460272 -0.181672
            CHANNELS 3 Zrotation Yrotation Xrotation
            JOINT Neck2
            {
              OFFSET 8.045911 0.0 0.0
              CHANNELS 3 Zrotation Yrotation Xrotation
              JOINT Head
              {
                OFFSET 6.432774 0.0 0.0
                CHANNELS 3 Zrotation Yrotation Xrotation
                JOINT HeadEnd
                {
                  OFFSET 16.169773 0.06451 0.00362
                  CHANNELS 3 Zrotation Yrotation Xrotation
                }
                JOINT Jaw
                {
                  OFFSET 0.108741 3.12938 0.002639
                  CHANNELS 3 Zrotation Yrotation Xrotation
                }
                JOINT LeftEye
                {
                  OFFSET 4.45173 8.166359 3.206392
                  CHANNELS 3 Zrotation Yrotation Xrotation
                }
                JOINT RightEye
                {
                  OFFSET 4.436895 8.135758 -3.222429
                  CHANNELS 3 Zrotation Yrotation Xrotation
                }
              }
            }
          }
          JOINT LeftShoulder
          {
            OFFSET 23.218927 5.195579 1.621656
            CHANNELS 3 Zrotation Yrotation Xrotation
            JOINT LeftArm
            {
              OFFSET 15.902118 2e-06 -2e-06
              CHANNELS 3 Zrotation Yrotation Xrotation
              JOINT LeftForeArm
              {
                OFFSET 28.739307 0.0 -1e-06
                CHANNELS 3 Zrotation Yrotation Xrotation
                JOINT LeftHand
                {
                  OFFSET 27.093981 -4e-06 0.0
                  CHANNELS 3 Zrotation Yrotation Xrotation
                  JOINT LeftHandThumb1
                  {
                    OFFSET 2.276781 3.380274 0.83384
                    CHANNELS 3 Zrotation Yrotation Xrotation
                    JOINT LeftHandThumb2
                    {
                      OFFSET 4.705309 -1e-06 -1e-06
                      CHANNELS 3 Zrotation Yrotation Xrotation
                      JOINT LeftHandThumb3
                      {
                        OFFSET 2.798515 0.0 3e-06
                        CHANNELS 3 Zrotation Yrotation Xrotation
                        JOINT LeftHandThumbEnd
                        {
                          OFFSET 3.180793 4e-06 -4e-06
                          CHANNELS 3 Zrotation Yrotation Xrotation
                        }
                      }
                    }
                  }
                  JOINT LeftHandIndex1
                  {
                    OFFSET 3.247786 2.352677 0.137192
                    CHANNELS 3 Zrotation Yrotation Xrotation
                    JOINT LeftHandIndex2
                    {
                      OFFSET 6.367095 1e-06 0.0
                      CHANNELS 3 Zrotation Yrotation Xrotation
                      JOINT LeftHandIndex3
                      {
                        OFFSET 3.662364 0.0 0.0
                        CHANNELS 3 Zrotation Yrotation Xrotation
                        JOINT LeftHandIndex4
                        {
                          OFFSET 2.329242 4e-06 -4e-06
                          CHANNELS 3 Zrotation Yrotation Xrotation
                          JOINT LeftHandIndexEnd
                          {
                            OFFSET 2.767823 1e-06 0.0
                            CHANNELS 3 Zrotation Yrotation Xrotation
                          }
                        }
                      }
                    }
                  }
                  JOINT LeftHandMiddle1
                  {
                    OFFSET 3.163612 0.945023 -0.406112
                    CHANNELS 3 Zrotation Yrotation Xrotation
                    JOINT LeftHandMiddle2
                    {
                      OFFSET 6.276789 3e-06 0.0
                      CHANNELS 3 Zrotation Yrotation Xrotation
                      JOINT LeftHandMiddle3
                      {
                        OFFSET 4.35652 -1e-06 4e-06
                        CHANNELS 3 Zrotation Yrotation Xrotation
                        JOINT LeftHandMiddle4
                        {
                          OFFSET 2.996877 0.0 8e-06
                          CHANNELS 3 Zrotation Yrotation Xrotation
                          JOINT LeftHandMiddleEnd
                          {
                            OFFSET 2.323256 3e-06 -4e-06
                            CHANNELS 3 Zrotation Yrotation Xrotation
                          }
                        }
                      }
                    }
                  }
                  JOINT LeftHandRing1
                  {
                    OFFSET 2.882606 -0.309162 0.107445
                    CHANNELS 3 Zrotation Yrotation Xrotation
                    JOINT LeftHandRing2
                    {
                      OFFSET 6.033198 0.0 4e-06
                      CHANNELS 3 Zrotation Yrotation Xrotation
                      JOINT LeftHandRing3
                      {
                        OFFSET 4.350578 3e-06 0.0
                        CHANNELS 3 Zrotation Yrotation Xrotation
                        JOINT LeftHandRing4
                        {
                          OFFSET 2.651321 2e-06 -7e-06
                          CHANNELS 3 Zrotation Yrotation Xrotation
                          JOINT LeftHandRingEnd
                          {
                            OFFSET 1.937663 1e-06 -4e-06
                            CHANNELS 3 Zrotation Yrotation Xrotation
                          }
                        }
                      }
                    }
                  }
                  JOINT LeftHandPinky1
                  {
                    OFFSET 2.865315 -1.525436 0.575687
                    CHANNELS 3 Zrotation Yrotation Xrotation
                    JOINT LeftHandPinky2
                    {
                      OFFSET 5.54936 1e-06 -8e-06
                      CHANNELS 3 Zrotation Yrotation Xrotation
                      JOINT LeftHandPinky3
                      {
                        OFFSET 3.070974 0.0 -4e-06
                        CHANNELS 3 Zrotation Yrotation Xrotation
                        JOINT LeftHandPinky4
                        {
                          OFFSET 1.549672 1e-06 0.0
                          CHANNELS 3 Zrotation Yrotation Xrotation
                          JOINT LeftHandPinkyEnd
                          {
                            OFFSET 1.952123 0.0 0.0
                            CHANNELS 3 Zrotation Yrotation Xrotation
                          }
                        }
                      }
                    }
                  }
                }
              }
            }
          }
          JOINT RightShoulder
          {
            OFFSET 23.161716 5.296122 -1.380114
            CHANNELS 3 Zrotation Yrotation Xrotation
            JOINT RightArm
            {
              OFFSET -16.027195 -2e-06 1.1e-05
              CHANNELS 3 Zrotation Yrotation Xrotation
              JOINT RightForeArm
              {
                OFFSET -28.736639 4e-06 2e-06
                CHANNELS 3 Zrotation Yrotation Xrotation
                JOINT RightHand
                {
                  OFFSET -27.133619 6e-06 0.0
                  CHANNELS 3 Zrotation Yrotation Xrotation
                  JOINT RightHandThumb1
                  {
                    OFFSET -2.274328 -3.351035 -0.83067
                    CHANNELS 3 Zrotation Yrotation Xrotation
                    JOINT RightHandThumb2
                    {
                      OFFSET -4.703594 -3e-06 2e-06
                      CHANNELS 3 Zrotation Yrotation Xrotation
                      JOINT RightHandThumb3
                      {
                        OFFSET -2.794935 -4e-06 -3e-06
                        CHANNELS 3 Zrotation Yrotation Xrotation
                        JOINT RightHandThumbEnd
                        {
                          OFFSET -3.183852 4e-06 1e-06
                          CHANNELS 3 Zrotation Yrotation Xrotation
                        }
                      }
                    }
                  }
                  JOINT RightHandIndex1
                  {
                    OFFSET -3.253496 -2.33755 -0.127667
                    CHANNELS 3 Zrotation Yrotation Xrotation
                    JOINT RightHandIndex2
                    {
                      OFFSET -6.344434 0.0 0.0
                      CHANNELS 3 Zrotation Yrotation Xrotation
                      JOINT RightHandIndex3
                      {
                        OFFSET -3.654871 0.0 -8e-06
                        CHANNELS 3 Zrotation Yrotation Xrotation
                        JOINT RightHandIndex4
                        {
                          OFFSET -2.327586 -1e-06 0.0
                          CHANNELS 3 Zrotation Yrotation Xrotation
                          JOINT RightHandIndexEnd
                          {
                            OFFSET -2.770001 3e-06 8e-06
                            CHANNELS 3 Zrotation Yrotation Xrotation
                          }
                        }
                      }
                    }
                  }
                  JOINT RightHandMiddle1
                  {
                    OFFSET -3.168223 -0.944764 0.411762
                    CHANNELS 3 Zrotation Yrotation Xrotation
                    JOINT RightHandMiddle2
                    {
                      OFFSET -6.266691 -1e-06 -4e-06
                      CHANNELS 3 Zrotation Yrotation Xrotation
                      JOINT RightHandMiddle3
                      {
                        OFFSET -4.348901 0.0 0.0
                        CHANNELS 3 Zrotation Yrotation Xrotation
                        JOINT RightHandMiddle4
                        {
                          OFFSET -3.00024 2e-06 -4e-06
                          CHANNELS 3 Zrotation Yrotation Xrotation
                          JOINT RightHandMiddleEnd
                          {
                            OFFSET -2.321477 -4e-06 -4e-06
                            CHANNELS 3 Zrotation Yrotation Xrotation
                          }
                        }
                      }
                    }
                  }
                  JOINT RightHandRing1
                  {
                    OFFSET -2.885654 0.293261 -0.119232
                    CHANNELS 3 Zrotation Yrotation Xrotation
                    JOINT RightHandRing2
                    {
                      OFFSET -6.032835 -1e-06 -4e-06
                      CHANNELS 3 Zrotation Yrotation Xrotation
                      JOINT RightHandRing3
                      {
                        OFFSET -4.33881 0.0 -4e-06
                        CHANNELS 3 Zrotation Yrotation Xrotation
                        JOINT RightHandRing4
                        {
                          OFFSET -2.654903 -4e-06 -4e-06
                          CHANNELS 3 Zrotation Yrotation Xrotation
                          JOINT RightHandRingEnd
                          {
                            OFFSET -1.935122 0.0 4e-06
                            CHANNELS 3 Zrotation Yrotation Xrotation
                          }
                        }
                      }
                    }
                  }
                  JOINT RightHandPinky1
                  {
                    OFFSET -2.866241 1.503904 -0.60527
                    CHANNELS 3 Zrotation Yrotation Xrotation
                    JOINT RightHandPinky2
                    {
                      OFFSET -5.553177 -2e-06 0.0
                      CHANNELS 3 Zrotation Yrotation Xrotation
                      JOINT RightHandPinky3
                      {
                        OFFSET -3.062664 -1e-06 -4e-06
                        CHANNELS 3 Zrotation Yrotation Xrotation
                        JOINT RightHandPinky4
                        {
                          OFFSET -1.546529 2e-06 4e-06
                          CHANNELS 3 Zrotation Yrotation Xrotation
                          JOINT RightHandPinkyEnd
                          {
                            OFFSET -1.952341 0.0 -4e-06
                            CHANNELS 3 Zrotation Yrotation Xrotation
                          }
                        }
                      }
                    }
                  }
                }
              }
            }
          }
        }
      }
    }
    JOINT LeftLeg
    {
      OFFSET -8.443107 2.567604 10.043214
      CHANNELS 3 Zrotation Yrotation Xrotation
      JOINT LeftShin
      {
        OFFSET 43.229198 1e-06 -1e-06
        CHANNELS 3 Zrotation Yrotation Xrotation
        JOINT LeftFoot
        {
          OFFSET 42.298611 1e-06 1e-06
          CHANNELS 3 Zrotation Yrotation Xrotation
          JOINT LeftToeBase
          {
            OFFSET 14.165858 1e-06 0.0
            CHANNELS 3 Zrotation Yrotation Xrotation
            JOINT LeftToeEnd
            {
              OFFSET 6.7141 -0.234461 0.0
              CHANNELS 3 Zrotation Yrotation Xrotation
            }
          }
        }
      }
    }
    JOINT RightLeg
    {
      OFFSET -8.303923 2.592729 -10.047278
      CHANNELS 3 Zrotation Yrotation Xrotation
      JOINT RightShin
      {
        OFFSET -43.369682 0.0 1e-06
        CHANNELS 3 Zrotation Yrotation Xrotation
        JOINT RightFoot
        {
          OFFSET -42.260784 4e-06 2e-06
          CHANNELS 3 Zrotation Yrotation Xrotation
          JOINT RightToeBase
          {
            OFFSET -14.222245 -2e-06 -1e-06
            CHANNELS 3 Zrotation Yrotation Xrotation
            JOINT RightToeEnd
            {
              OFFSET -6.660062 0.232574 -2e-06
              CHANNELS 3 Zrotation Yrotation Xrotation
            }
          }
        }
      }
    }
  }
}
MOTION
Frames: 4
Frame Time: 0.03333333333333333
0.0 0.0 0.0 0.0 -0.0 0.0 -1.117004 48.85331 6.371895 92.105949 -64.040009 88.40284 10.22632 -1.036697 -0.87839 -5.083408 -0.926686 -0.175383 17.636728 0.099511 -1.714642 18.445595 -0.39944 3.702296 -2.859017 -0.135259 1.550397 -28.543247 1.942025 0.467501 5e-06 -0.0 0.0 -0.17801 -0.041606 0.020666 -0.189636 0.046452 0.02067 -0.203685 -0.127434 0.012707 -42.288383 -62.509968 43.317623 95.725197 -2.259693 -25.408886 5.484839 -0.46567 -0.027552 68.333855 74.8759 71.371758 17.636633 -26.322735 52.411205 -19.46666 -14.3956 29.410395 -1e-06 -8.774824 -3e-06 16.036325 -17.70594 6.264086 -0.609777 -1.795654 -3.889328 -4.807091 -11.046809 -2.937851 4e-06 -20.976019 -1e-06 -5.019972 -25.03356 -4.031883 6e-06 -2e-06 -0.0 -10.634537 -5.686972 -3.565588 10.573276 -17.922947 -3.113901 2e-06 -13.821211 1e-06 -0.501777 -31.181505 -4.027016 -10.136958 -58.594009 6.68873 -13.982717 -7.150198 -2.875042 13.772732 -8.401489 -3.218242 0.347733 -34.211552 0.771655 -0.963029 -17.733368 2.62102 -0.0 -1e-06 -0.0 -17.346424 -20.095217 -4.201783 21.757566 -1.638376 3.86643 1e-06 -6.338822 1e-06 -1.69759 -22.591742 -6.194006 0.0 -4e-06 -2e-06 149.108597 -67.11277 31.045982 102.922203 -0.516567 -23.990507 1.379555 -1.024269 -0.011887 82.114784 79.908333 79.257812 22.182121 -20.375898 49.933327 -16.701815 -16.743528 28.476532 -3e-06 -12.690601 -1e-06 16.088755 -17.358421 2.578798 -0.105921 -1.513855 -4.275882 -5.039041 -5.612871 -2.953557 5e-06 -11.020523 -2e-06 -6.111297 -15.895334 -3.840472 -0.0 -1e-06 -1e-06 -10.283371 -5.680287 -4.341839 11.028294 -11.302402 -2.372633 -1.384268 -14.238578 -6.320121 -0.625438 -26.924187 -3.827601 -4.29783 -48.82703 -4.270322 -13.708526 -7.363475 -3.72094 18.141151 -14.052739 -3.242674 7e-06 -18.787266 -1e-06 -0.429712 -8.456047 2.555504 0.0 1e-06 1e-06 -15.923536 -20.094482 -5.473588 30.419214 -7.190827 1.735928 3e-06 -8.162922 -1e-06 -1.861903 -22.861467 -6.167942 -2e-06 -3e-06 -1e-06 112.713058 -7.723529 1.686275 112.836792 -0.213816 0.349241 -80.304726 10.423165 -2.03357 -25.563036 1.846188 1.718951 -0.999999 0.0 -0.0 -66.912865 -2.422347 3.563969 115.62101 0.194081 0.145781 -93.661583 3.142338 -1.490141 -35.917213 1.000587 1.211613 -1.000004 -0.0 0.0 
0.0 0.0 0.0 0.0 -0.0 0.0 -1.045694 48.844185 6.613763 91.750076 -64.12999 88.675156 10.127993 -0.970086 -0.837083 -5.168556 -0.890652 -0.128871 17.727663 0.123302 -1.612595 18.488813 -0.404013 3.586174 -2.85473 -0.172854 1.548245 -28.457792 2.040193 0.437579 6e-06 0.0 0.0 -0.18313 -0.078351 0.026216 -0.156291 0.001234 0.033564 -0.175567 -0.153292 0.007595 -42.388542 -62.573364 43.706829 96.01577 -2.07783 -26.044352 5.243608 -0.433936 -0.027106 69.722954 74.042839 72.402725 17.636631 -26.322723 52.411179 -19.466652 -14.395597 29.410378 0.0 -8.774821 -3e-06 16.045519 -17.726875 6.248745 -0.609776 -1.795653 -3.889327 -4.807088 -11.046804 -2.93785 3e-06 -20.976006 0.0 -5.01997 -25.033546 -4.03188 6e-06 -0.0 0.0 -10.634533 -5.686969 -3.565586 10.573271 -17.922943 -3.113899 2e-06 -13.821202 2e-06 -0.50178 -31.181488 -4.027013 -10.043854 -58.660568 6.620333 -13.982712 -7.150196 -2.875041 13.772727 -8.401488 -3.21824 0.347731 -34.211533 0.771657 -0.96303 -17.733362 2.62102 0.0 -2e-06 -1e-06 -17.34642 -20.095213 -4.20178 21.757559 -1.638373 3.866429 1e-06 -6.338822 1e-06 -1.697592 -22.591742 -6.194005 0.0 -5e-06 -2e-06 149.006317 -67.15596 31.37388 102.864082 -0.494739 -24.172356 1.319718 -0.977839 -0.009596 80.870705 79.408043 77.769638 22.182117 -20.375889 49.933308 -16.701811 -16.743528 28.476526 -3e-06 -12.690599 -1e-06 16.06909 -17.278004 2.5863 -0.105919 -1.513856 -4.275881 -5.039041 -5.612871 -2.953556 4e-06 -11.020521 -3e-06 -6.111299 -15.89533 -3.84047 -0.0 -1e-06 0.0 -10.28337 -5.680288 -4.341837 11.028294 -11.302403 -2.372633 -1.384268 -14.238583 -6.320122 -0.625438 -26.924187 -3.827602 -4.270697 -48.895779 -4.175339 -13.708525 -7.363475 -3.720938 18.141148 -14.05274 -3.242675 6e-06 -18.787266 -2e-06 -0.429712 -8.456046 2.555504 -0.0 2e-06 0.0 -15.923536 -20.094482 -5.473584 30.41921 -7.190824 1.735928 2e-06 -8.162925 -2e-06 -1.8619 -22.861467 -6.167943 -2e-06 -4e-06 -0.0 112.900764 -7.803607 1.672583 112.577728 -0.25833 0.342971 -80.195427 10.39234 -1.83552 -25.487427 1.883689 1.667464 -0.999999 -0.0 0.0 -66.680199 -2.315713 3.448411 115.240974 0.160728 0.121997 -93.341949 3.145075 -1.501915 -35.488781 0.991533 1.227578 -1.000003 -0.0 0.0 
0.0 0.0 0.0 0.0 -0.0 0.0 -0.987831 48.843048 6.846401 91.568916 -64.173332 88.843513 10.027342 -0.931057 -0.801084 -5.253026 -0.853119 -0.068356 17.833755 0.129242 -1.567682 18.581472 -0.341723 3.465836 -2.857757 -0.228748 1.53837 -28.467545 2.018775 0.416641 5e-06 -0.0 0.0 -0.181647 -0.102039 0.030264 -0.175476 -0.027461 0.032901 -0.188707 -0.170491 0.012001 -42.146313 -62.604263 43.666439 96.175499 -1.974684 -26.178095 5.116131 -0.433496 -0.025479 69.864037 73.729523 72.203819 17.636633 -26.322733 52.41119 -19.46666 -14.395597 29.410389 -1e-06 -8.774822 -2e-06 16.077612 -17.720217 6.177645 -0.609776 -1.795654 -3.889327 -4.807088 -11.04681 -2.93785 4e-06 -20.976019 0.0 -5.01997 -25.03356 -4.03188 6e-06 -0.0 0.0 -10.634533 -5.686971 -3.565588 10.573272 -17.922951 -3.113899 2e-06 -13.821209 1e-06 -0.501778 -31.181498 -4.027013 -9.910223 -58.672459 6.522449 -13.982713 -7.150198 -2.875041 13.77273 -8.401493 -3.218241 0.347733 -34.211555 0.771656 -0.963029 -17.733372 2.62102 -0.0 -0.0 -1e-06 -17.346418 -20.095221 -4.201782 21.757557 -1.638376 3.866428 2e-06 -6.338825 1e-06 -1.697589 -22.591749 -6.194005 0.0 -4e-06 -2e-06 149.254272 -67.209915 31.358315 102.620079 -0.502511 -24.276886 1.344179 -0.982523 -0.008737 80.752007 79.116714 77.80735 22.182116 -20.375893 49.933308 -16.701813 -16.743528 28.476528 -2e-06 -12.6906 -1e-06 16.061104 -17.183826 2.606989 -0.10592 -1.513856 -4.275881 -5.03904 -5.61287 -2.953555 4e-06 -11.020523 -2e-06 -6.111297 -15.895334 -3.84047 -0.0 -1e-06 0.0 -10.283369 -5.680288 -4.341837 11.028294 -11.302402 -2.372633 -1.384269 -14.238581 -6.32012 -0.625438 -26.924183 -3.8276 -4.23228 -48.885265 -4.123721 -13.708523 -7.363475 -3.720939 18.141146 -14.052739 -3.242673 6e-06 -18.787266 -2e-06 -0.429712 -8.456043 2.555504 -0.0 3e-06 0.0 -15.923534 -20.094482 -5.473584 30.41921 -7.190825 1.735926 3e-06 -8.162925 -2e-06 -1.861901 -22.861467 -6.167942 -1e-06 -2e-06 -1e-06 113.149376 -7.812434 1.620641 112.322906 -0.286671 0.346128 -80.300301 10.276176 -1.776311 -25.634398 1.901234 1.647184 -0.999999 0.0 0.0 -66.399635 -2.254647 3.434331 114.911377 0.149832 0.128839 -93.264091 3.133906 -1.617972 -35.331978 0.983773 1.238615 -1.000001 0.0 -0.0 
0.0 0.0 0.0 0.0 -0.0 0.0 -0.955357 48.837856 7.012593 91.39592 -64.24369 89.052391 9.928916 -0.90221 -0.776133 -5.325212 -0.835387 -0.033196 17.880148 0.188099 -1.564194 18.640163 -0.293705 3.369639 -2.859401 -0.271064 1.518186 -28.552523 1.986347 0.417579 6e-06 -0.0 0.0 -0.179417 -0.116499 0.032466 -0.218703 -0.043038 0.023229 -0.221941 -0.18405 0.023552 -41.874275 -62.621456 43.547157 96.27961 -1.923509 -26.298557 5.076186 -0.448053 -0.029356 69.964928 73.549362 72.280777 17.636639 -26.322737 52.411201 -19.466665 -14.395598 29.410393 -2e-06 -8.774823 -3e-06 16.083109 -17.706961 6.137712 -0.609777 -1.795654 -3.889328 -4.80709 -11.046813 -2.93785 4e-06 -20.976023 0.0 -5.019971 -25.033562 -4.031881 6e-06 -1e-06 -0.0 -10.634538 -5.686973 -3.565588 10.573277 -17.922955 -3.113901 2e-06 -13.821211 1e-06 -0.501778 -31.181507 -4.027016 -9.854224 -58.708374 6.46947 -13.982718 -7.150199 -2.875042 13.772732 -8.401493 -3.218241 0.347734 -34.211559 0.771655 -0.963029 -17.733374 2.62102 0.0 0.0 -1e-06 -17.346426 -20.095224 -4.201782 21.757566 -1.638373 3.86643 1e-06 -6.338824 1e-06 -1.697591 -22.591751 -6.194006 -0.0 -6e-06 -2e-06 149.538132 -67.229881 31.21797 102.391914 -0.640347 -24.320559 1.454796 -0.952507 -0.009269 80.696968 79.014275 78.044922 22.182117 -20.375896 49.933319 -16.701815 -16.743526 28.47653 -2e-06 -12.690601 -1e-06 16.094269 -17.118578 2.635316 -0.105919 -1.513856 -4.275882 -5.039041 -5.612873 -2.953557 4e-06 -11.020523 -2e-06 -6.111297 -15.895334 -3.84047 -0.0 -1e-06 -0.0 -10.28337 -5.680288 -4.341839 11.028294 -11.302406 -2.372633 -1.384269 -14.238583 -6.320121 -0.625438 -26.924194 -3.827602 -4.193401 -48.918415 -4.062335 -13.708525 -7.363477 -3.72094 18.141148 -14.052742 -3.242674 5e-06 -18.78727 -1e-06 -0.429712 -8.456045 2.555504 -0.0 1e-06 1e-06 -15.923536 -20.094484 -5.473584 30.419214 -7.190826 1.735927 2e-06 -8.162925 -1e-06 -1.861902 -22.861471 -6.167942 -1e-06 -2e-06 -1e-06 113.275505 -7.78348 1.646103 112.168839 -0.300166 0.348529 -80.56974 10.197327 -1.78703 -25.964867 1.90805 1.64187 -0.999998 0.0 0.0 -66.22084 -2.228635 3.43361 114.692619 0.185011 0.141607 -93.344994 3.064471 -1.791883 -35.396568 0.981457 1.246015 -1.000003 0.0 0.0 
